<svg version="1" xmlns="http://www.w3.org/2000/svg" width="240" height="240" viewBox="0 0 180.000000 180.000000"><path d="M90.3 1.7L64 2v59H49v24.9c0 22.9-.1 25-1.7 25.5-1 .2-10.2 2.4-20.5 4.7-13.3 3-18.8 4.7-19 5.7-.2.9-.2 14.1 0 29.5l.3 28 29.2-.5 29.2-.5 10.4-6.8c5.8-3.7 11.1-6.9 11.8-7.2 1-.4 1.3 1.1 1.3 6.8v7.2l21.8-.6c11.9-.4 25.4-.7 29.9-.7h8.2l11.6-12.8 11.6-12.7-.5-21.5c-.3-11.8-.6-22.1-.6-22.8 0-1.1-3.4-1.3-17.7-1l-17.8.3-.3-23.7-.2-23.7 3.7-.6c9.4-1.5 8.6-.4 7.9-11.3-.3-5.3-.6-15.6-.6-22.8V11.2l-3.2-1.2c-1.8-.7-7.4-3-12.5-5.2-5.1-2.1-10.5-3.7-12-3.6-1.5.2-14.6.4-29 .5zM122 31.5V60l-23.7.1c-13.1 0-25.7.2-27.9.5l-4.2.6-.4-4.4c-.3-2.4-.6-15.2-.7-28.5l-.2-24.2 5.3-.4c2.9-.2 15.8-.4 28.6-.5L122 3v28.5zm16.3-16.6c3.1 5.6 3.3 6.3 1.2 5.5-1.3-.5-1.5 1.7-1.5 16.5V54h-6V36.1c0-15.4-.2-18-1.6-18.5-1.3-.5-1.1-1.1 1.3-4 1.5-1.9 3-3.5 3.3-3.5.3-.1 1.7 2.1 3.3 4.8zm-3.5 68.3l.2 23.7-3.9 2-3.9 2-.5-4.2c-.2-2.3-.5-13.7-.6-25.4l-.2-21.2 2.8-.4c6.1-.9 5.8-2.3 6.1 23.5zm-16.6-18.5c.3 2.1.5 14.1.4 26.7l-.1 22.9-4.8 2c-2.6 1.1-4.9 1.8-5.1 1.6-.2-.2-.6-13.1-.9-28.7l-.5-28.2h10.6l.4 3.7zM90.1 89.5c4.9 12.6 8.9 23.4 8.9 23.8 0 .4-2.1.7-4.7.5-4.6-.3-4.8-.4-6.4-4.8l-1.7-4.5-7.2-.3c-3.9-.2-7.7.2-8.4.7-.7.6-1.8 2.9-2.5 5.1-1.2 4-1.2 4-6.1 4h-5l1.1-2.8c.6-1.5 4.2-11.4 8-22.1 3.8-10.6 7.3-20.1 7.8-21 .6-1 2.2-1.6 4.1-1.6h3.2l8.9 23zm77.9 18.2c-.1.5-4.7 2.9-10.3 5.6l-10.2 4.7-16.8.3c-9.2.1-16.7 0-16.7-.3s4.9-2.5 10.8-5l10.7-4.5 15.5-.5c8.5-.4 15.8-.7 16.3-.8.4-.1.7.1.7.5zM48.8 118.5c-.7.7-30.3 1.7-29.7 1.1.4-.4 7.1-2.2 15-3.9l14.4-3.3.3 2.9c.2 1.6.2 3 0 3.2zm117.2 7.1c0 .7-.7 1.4-1.5 1.8-1.2.4-1.5 2.9-1.5 13.9 0 12.1-.2 13.6-2 15.2-2 1.8-2 1.7-2-11.4s0-13.2-2.2-12.6c-1.5.6-2 .4-1.6-.6.3-.8 1.6-4.3 2.8-7.8l2.4-6.3 2.8 3.3c1.5 1.9 2.8 3.9 2.8 4.5zm-100.7 5.1c.4 5.8.7 18.6.7 28.3v17.7l-27.5.7c-15.1.4-27.9.5-28.5.1-.6-.4-1-10.7-1-28.5v-28l20.3-.3c11.1-.1 23.6-.3 27.8-.5l7.6-.2.6 10.7zM82 143.5c0 22.7-.1 23.5-2.1 24.5-1.1.7-2.2 1-2.4.8-.1-.2-.6-11.2-1-24.6l-.7-24.2H82v23.5zm7.5-3.1c.4 11.2.4 20.9.1 21.5-2.1 3.4-2.6-.5-2.6-20.4 0-11.9.4-21.5.9-21.5s1.2 9.2 1.6 20.4zm43-15c3.3 1.4 3.5 1.7 3.5 6.5v5.1l-3.2-2c-2-1.2-5.1-2-7.6-2-10.6 0-16.4 14.5-10.1 24.9 3.7 6.2 12.5 7.6 18.3 3l2.6-2v5.4c0 5.2-.1 5.5-3.2 6.8-1.8.7-5.6 1.3-8.4 1.3-11.9-.2-21.5-10.9-21.4-23.7.1-10.2 5-18.4 13.4-22.3 5.8-2.7 11.1-3 16.1-1z"/><path d="M87.5 9.7C83.1 12 79.1 16 76.7 20.5c-3.1 5.7-3 17.3 0 23.2 5.5 10.3 16.8 14.6 27.6 10.4 2.4-1 2.7-1.5 2.7-6v-5l-3.2 1.8c-5.6 3.2-7.5 3.4-12.3 1.1-14.1-6.8-9-31.2 6.3-29.7 2.4.3 5.1 1.2 6.1 2.1 1 .9 2 1.6 2.2 1.6 1.2 0-.5-9.7-1.9-10.8-2.3-1.7-13.1-1.5-16.7.5zM75.2 88.4c-1.2 4.1-2.2 7.7-2.2 8 0 .3 2.3.6 5 .6 2.8 0 5-.4 5-.9 0-.9-4.9-14.4-5.4-14.9-.2-.1-1.3 3.1-2.4 7.2zM21.2 149.7l.3 22.8 9-.4c13.1-.5 18.3-3.2 22.8-11.6 3-5.6 3-16.4 0-22C48.7 129.8 43.1 127 30 127h-9l.2 22.7zM41 136.8c3.4 2.5 6 7.9 6 12.7 0 8-5 13.9-12.7 15.1l-4.3.7v-31.6l4.3.7c2.3.4 5.3 1.5 6.7 2.4z"/></svg>