<svg version="1" xmlns="http://www.w3.org/2000/svg" width="240" height="240" viewBox="0 0 180.000000 180.000000"><path d="M91.8 1.8L64 2v26.5c0 14.5.3 26.6.8 26.8.4.3.7-11.3.7-25.6V3.5l28.2-.3 28.2-.2.3 28.1c.2 18.2-.1 28.3-.7 28.5-.7.2-47.3 1.1-71.7 1.4-.5 0-.8 11.2-.8 25v24.9l-3.7 1c-2.1.5-11.3 2.7-20.5 4.8L8 120.5v58.8l29.2-.6 29.2-.7 11.1-7c6.1-3.9 11.5-7 11.8-7 .4 0 .7 3.2.7 7.2v7.1l16.7-.6c9.1-.4 22.6-.7 29.9-.7h13.2l11.7-13 11.7-13-.7-22.4-.8-22.4-17.6.1-17.6.2-.3-23.7L136 59l2.2-.4c1.3-.3 4-.8 6.2-1.1l3.9-.6-.7-4.6c-.3-2.5-.6-12.8-.6-22.7V11.4l-11.7-4.7c-6.5-2.5-12.7-4.7-13.8-4.9-1.1-.2-14.5-.2-29.7 0zm44.8 9.9c.5 1 2.1 3.6 3.4 5.7l2.4 3.9-2.3-.6-2.3-.6.3 16.7.4 16.7-3.3.3-3.2.3V36.4c0-15.3-.2-17.8-1.6-18.9-1.5-1.1-1.4-1.5 1.1-4.3 3.3-3.7 3.7-3.8 5.1-1.5zM135 83.2v24.3l-3.9 1.6c-2.2 1-4.2 1.4-4.5 1.1-.3-.3-.6-11.7-.6-25.3V60.1l2.3-.4c1.2-.2 3.2-.5 4.5-.6l2.2-.1v24.2zm-16.2 4.5l-.3 26.7-4.8 1.9c-2.6 1.1-4.9 1.8-5.1 1.6-.2-.2-.6-13.1-1-28.7l-.7-28.2H119l-.2 26.7zM90.2 89c4.8 12.4 8.7 23.1 8.7 23.7.1.9-1.4 1.3-4.5 1.3-4.5 0-4.5 0-6.6-5.1l-2.1-5-6.1.2c-8.7.3-9.2.6-11.1 5.5-1.7 4.4-1.7 4.4-6.6 4.4h-4.8l4-11.3c2.2-6.1 5.9-16.4 8.1-22.7 2.3-6.3 4.6-12.1 5.1-12.8.6-.7 2.4-1.2 4.1-1 3 .3 3.2.6 11.8 22.8zm77.8 18.8c0 .5-4.4 2.9-9.8 5.4l-9.9 4.6-17.6.3c-9.7.2-17.3.1-16.9-.3.4-.3 5.2-2.6 10.7-4.9l10-4.4 15.5-.5c8.5-.3 16.1-.7 16.8-.8.6-.1 1.2.2 1.2.6zM48.7 118.7c-.3.2-7.4.6-15.9.9-8.4.2-14.6.1-13.8-.3.8-.3 7.8-2.1 15.5-3.8l14-3.2.3 2.9c.2 1.7.1 3.2-.1 3.5zm116.1 8.4c-2 1.6-2.1 2.2-1.5 14.1.6 12.4.6 12.5-1.8 14.8l-2.5 2.3-.2-8.4c-.1-4.6-.3-10.5-.3-13.1 0-4.1-.3-4.7-1.7-4.2-2.3.7-2.3.8.9-7.7l2.7-7.2 3.2 3.9 3.3 3.9-2.1 1.6zm-75.3 1.1c1 14.1.3 34-1.2 34.6-1 .3-1.3-4.5-1.3-21.7 0-22.8 1.3-29.5 2.5-12.9zm-23.7 20.4l.3 28.1-18.8.6c-10.3.4-23.2.7-28.5.7H9v-57l19.7-.3c10.9-.1 23.6-.3 28.3-.2h8.5l.3 28.1zm16.2-5.2v23.4l-2.5 1.6c-1.8 1.2-2.5 1.3-2.5.4 0-.7-.3-12-.7-25.1l-.6-23.7H82v23.4zm51-17.9c2.7 1.4 3 2 3 6.5 0 2.8-.2 5-.5 5s-1.9-1-3.5-2.1c-2.3-1.7-3.8-2.1-7.5-1.7-7.4.9-11.7 6.4-11.7 14.8 0 5.7 2.4 11.3 6 13.6 3.8 2.5 10.6 2.2 14.2-.5l3-2.2v10.9l-4.5 1.7c-5.9 2.3-12 1.3-18.2-2.8-15.5-10.5-13-35.8 4.2-43.3 4.1-1.8 12-1.7 15.5.1z"/><path d="M75.6 87.7c-1.1 3.8-2.1 7.4-2.4 8-.3.9 1.1 1.3 4.8 1.3 5.8 0 5.7.8 1.6-10.3L77.5 81l-1.9 6.7zM21 138.7c0 6.5.3 16.7.6 22.8l.7 11 9.6-.5c7.8-.4 10.3-1 13.4-2.9 8.3-5.1 12.3-16.3 9.3-26.3-3.3-11.6-9.7-15.7-24.3-15.8H21v11.7zm19.9-2c8 5.9 8 19.7 0 25.6-1.4 1-4.4 2.1-6.7 2.4l-4.2.6v-31.6l4.2.6c2.3.3 5.3 1.4 6.7 2.4zM87.5 9.9C80.1 13.2 74 23.2 74 32c0 4.4 2.6 11.8 5.5 15.6 5.2 6.9 16.3 9.9 24.3 6.5 3-1.3 3.2-1.7 3.2-6.3v-4.9l-3 2.1c-1.6 1.2-4.4 2.3-6.2 2.6-10.2 1.6-18.3-13.1-13-23.6 3.6-7.3 13-10.3 18.6-5.9l2.6 2V15c0-4.5-.3-5.2-2.6-6-4-1.6-11.5-1.1-15.9.9z"/></svg>